<?xml version="1.0" encoding="utf-8"?>
<svg viewBox="0 0 20 20" width="20" height="20" xmlns="http://www.w3.org/2000/svg">
  <ellipse transform="matrix(0.9999999999999999, -0.000039000005926936865, 0.00003800000558840111, 0.9999999999999999, -0.3011259734630589, -2.466248035430908)" cx="10.301" cy="12.467" rx="9" ry="9" style="stroke: rgb(255, 255, 255); fill: rgb(39, 46, 248);"/>
  <path d="M 14.875 5.518 C 14.791 5.439 14.693 5.399 14.579 5.399 C 14.464 5.399 14.365 5.439 14.282 5.518 L 13.425 6.324 C 12.955 5.903 12.417 5.578 11.811 5.346 C 11.205 5.115 10.582 5 9.941 5 C 8.733 5 7.679 5.346 6.779 6.04 C 5.878 6.734 5.285 7.638 5 8.756 L 5 8.8 C 5 8.854 5.021 8.902 5.063 8.94 C 5.104 8.98 5.153 9 5.211 9 L 6.521 9 C 6.618 9 6.684 8.952 6.719 8.856 C 6.903 8.439 7.02 8.196 7.069 8.126 C 7.376 7.65 7.784 7.278 8.293 7.006 C 8.803 6.736 9.352 6.599 9.941 6.599 C 10.823 6.599 11.589 6.886 12.24 7.455 L 11.331 8.318 C 11.247 8.398 11.205 8.492 11.205 8.6 C 11.205 8.708 11.247 8.802 11.331 8.882 C 11.414 8.961 11.513 9 11.627 9 L 14.579 9 C 14.693 9 14.791 8.961 14.875 8.882 C 14.958 8.802 15 8.708 15 8.6 L 15 5.8 C 15 5.69 14.959 5.598 14.875 5.518 Z" style="fill: rgb(255, 255, 255);" transform="matrix(0.9999999999999999, 0, 0, 0.9999999999999999, -4.440892098500626e-16, -8.881784197001252e-16)"/>
  <path d="M 14.875 11.518 C 14.791 11.439 14.693 11.399 14.579 11.399 C 14.464 11.399 14.365 11.439 14.282 11.518 L 13.425 12.324 C 12.955 11.903 12.417 11.578 11.811 11.346 C 11.205 11.115 10.582 11 9.941 11 C 8.733 11 7.679 11.346 6.779 12.04 C 5.878 12.734 5.285 13.638 5 14.756 L 5 14.8 C 5 14.854 5.021 14.902 5.063 14.94 C 5.104 14.98 5.153 15 5.211 15 L 6.521 15 C 6.618 15 6.684 14.952 6.719 14.856 C 6.903 14.439 7.02 14.196 7.069 14.126 C 7.376 13.65 7.784 13.278 8.293 13.006 C 8.803 12.736 9.352 12.599 9.941 12.599 C 10.823 12.599 11.589 12.886 12.24 13.455 L 11.331 14.318 C 11.247 14.398 11.205 14.492 11.205 14.6 C 11.205 14.708 11.247 14.802 11.331 14.882 C 11.414 14.961 11.513 15 11.627 15 L 14.579 15 C 14.693 15 14.791 14.961 14.875 14.882 C 14.958 14.802 15 14.708 15 14.6 L 15 11.8 C 15 11.69 14.959 11.598 14.875 11.518 Z" style="fill: rgb(255, 255, 255);" transform="matrix(-0.9999999999999999, 0, 0, -0.9999999999999999, 20.00000190734863, 25.999999999999996)"/>
</svg>